<mxfile host="Electron" modified="2023-05-08T17:26:37.696Z" agent="Mozilla/5.0 (Windows NT 10.0; Win64; x64) AppleWebKit/537.36 (KHTML, like Gecko) draw.io/21.2.8 Chrome/112.0.5615.165 Electron/24.2.0 Safari/537.36" etag="XGiFop-knfT0f7cBkXQ5" version="21.2.8" type="device">
  <diagram name="Page-1" id="cF3s29BVLc6H--nkHUwI">
    <mxGraphModel dx="864" dy="516" grid="1" gridSize="10" guides="1" tooltips="1" connect="1" arrows="1" fold="1" page="1" pageScale="1" pageWidth="850" pageHeight="1100" math="0" shadow="0">
      <root>
        <mxCell id="0" />
        <mxCell id="1" parent="0" />
        <mxCell id="cb05J--shXvywzciJnqB-1" value="Customer Use Case" style="swimlane;whiteSpace=wrap;html=1;" vertex="1" parent="1">
          <mxGeometry x="150" y="60" width="580" height="1550" as="geometry" />
        </mxCell>
        <mxCell id="cb05J--shXvywzciJnqB-3" value="Login" style="ellipse;whiteSpace=wrap;html=1;" vertex="1" parent="cb05J--shXvywzciJnqB-1">
          <mxGeometry x="75" y="70" width="100" height="50" as="geometry" />
        </mxCell>
        <mxCell id="cb05J--shXvywzciJnqB-5" value="Show Error Message" style="ellipse;whiteSpace=wrap;html=1;" vertex="1" parent="cb05J--shXvywzciJnqB-1">
          <mxGeometry x="250" y="30" width="145" height="50" as="geometry" />
        </mxCell>
        <mxCell id="cb05J--shXvywzciJnqB-6" value="Check Password" style="ellipse;whiteSpace=wrap;html=1;" vertex="1" parent="cb05J--shXvywzciJnqB-1">
          <mxGeometry x="250" y="90" width="145" height="50" as="geometry" />
        </mxCell>
        <mxCell id="cb05J--shXvywzciJnqB-7" value="Sign Up" style="ellipse;whiteSpace=wrap;html=1;" vertex="1" parent="cb05J--shXvywzciJnqB-1">
          <mxGeometry x="75" y="180" width="100" height="50" as="geometry" />
        </mxCell>
        <mxCell id="cb05J--shXvywzciJnqB-9" value="" style="endArrow=classic;html=1;rounded=0;entryX=0;entryY=0.5;entryDx=0;entryDy=0;dashed=1;exitX=1;exitY=0.5;exitDx=0;exitDy=0;" edge="1" parent="cb05J--shXvywzciJnqB-1" source="cb05J--shXvywzciJnqB-3" target="cb05J--shXvywzciJnqB-6">
          <mxGeometry relative="1" as="geometry">
            <mxPoint x="165" y="130" as="sourcePoint" />
            <mxPoint x="265" y="130" as="targetPoint" />
          </mxGeometry>
        </mxCell>
        <mxCell id="cb05J--shXvywzciJnqB-10" value="&amp;lt;&amp;lt;include&amp;gt;&amp;gt;" style="edgeLabel;resizable=0;html=1;align=center;verticalAlign=middle;" connectable="0" vertex="1" parent="cb05J--shXvywzciJnqB-9">
          <mxGeometry relative="1" as="geometry" />
        </mxCell>
        <mxCell id="cb05J--shXvywzciJnqB-12" value="" style="endArrow=classic;html=1;rounded=0;exitX=0;exitY=0.66;exitDx=0;exitDy=0;exitPerimeter=0;entryX=1;entryY=0.5;entryDx=0;entryDy=0;dashed=1;" edge="1" parent="cb05J--shXvywzciJnqB-1" source="cb05J--shXvywzciJnqB-5" target="cb05J--shXvywzciJnqB-3">
          <mxGeometry relative="1" as="geometry">
            <mxPoint x="140" y="60" as="sourcePoint" />
            <mxPoint x="240" y="60" as="targetPoint" />
          </mxGeometry>
        </mxCell>
        <mxCell id="cb05J--shXvywzciJnqB-13" value="&amp;lt;&amp;lt;extend&amp;gt;&amp;gt;" style="edgeLabel;resizable=0;html=1;align=center;verticalAlign=middle;" connectable="0" vertex="1" parent="cb05J--shXvywzciJnqB-12">
          <mxGeometry relative="1" as="geometry" />
        </mxCell>
        <mxCell id="cb05J--shXvywzciJnqB-14" value="Show Error Message" style="ellipse;whiteSpace=wrap;html=1;" vertex="1" parent="cb05J--shXvywzciJnqB-1">
          <mxGeometry x="250" y="160" width="145" height="50" as="geometry" />
        </mxCell>
        <mxCell id="cb05J--shXvywzciJnqB-15" value="Check Password" style="ellipse;whiteSpace=wrap;html=1;" vertex="1" parent="cb05J--shXvywzciJnqB-1">
          <mxGeometry x="250" y="220" width="145" height="50" as="geometry" />
        </mxCell>
        <mxCell id="cb05J--shXvywzciJnqB-16" value="" style="endArrow=classic;html=1;rounded=0;entryX=0;entryY=0.5;entryDx=0;entryDy=0;dashed=1;exitX=1;exitY=0.5;exitDx=0;exitDy=0;" edge="1" parent="cb05J--shXvywzciJnqB-1" target="cb05J--shXvywzciJnqB-15" source="cb05J--shXvywzciJnqB-7">
          <mxGeometry relative="1" as="geometry">
            <mxPoint x="175" y="270" as="sourcePoint" />
            <mxPoint x="275" y="270" as="targetPoint" />
          </mxGeometry>
        </mxCell>
        <mxCell id="cb05J--shXvywzciJnqB-17" value="&amp;lt;&amp;lt;include&amp;gt;&amp;gt;" style="edgeLabel;resizable=0;html=1;align=center;verticalAlign=middle;" connectable="0" vertex="1" parent="cb05J--shXvywzciJnqB-16">
          <mxGeometry relative="1" as="geometry" />
        </mxCell>
        <mxCell id="cb05J--shXvywzciJnqB-18" value="" style="endArrow=classic;html=1;rounded=0;exitX=0;exitY=0.66;exitDx=0;exitDy=0;exitPerimeter=0;entryX=0.97;entryY=0.38;entryDx=0;entryDy=0;dashed=1;entryPerimeter=0;" edge="1" parent="cb05J--shXvywzciJnqB-1" source="cb05J--shXvywzciJnqB-14" target="cb05J--shXvywzciJnqB-7">
          <mxGeometry relative="1" as="geometry">
            <mxPoint x="150" y="200" as="sourcePoint" />
            <mxPoint x="185" y="255" as="targetPoint" />
          </mxGeometry>
        </mxCell>
        <mxCell id="cb05J--shXvywzciJnqB-19" value="&amp;lt;&amp;lt;extend&amp;gt;&amp;gt;" style="edgeLabel;resizable=0;html=1;align=center;verticalAlign=middle;" connectable="0" vertex="1" parent="cb05J--shXvywzciJnqB-18">
          <mxGeometry relative="1" as="geometry" />
        </mxCell>
        <mxCell id="cb05J--shXvywzciJnqB-20" value="Show Error Message" style="ellipse;whiteSpace=wrap;html=1;" vertex="1" parent="cb05J--shXvywzciJnqB-1">
          <mxGeometry x="275" y="280" width="145" height="50" as="geometry" />
        </mxCell>
        <mxCell id="cb05J--shXvywzciJnqB-21" value="Check Email" style="ellipse;whiteSpace=wrap;html=1;" vertex="1" parent="cb05J--shXvywzciJnqB-1">
          <mxGeometry x="275" y="340" width="145" height="50" as="geometry" />
        </mxCell>
        <mxCell id="cb05J--shXvywzciJnqB-22" value="" style="endArrow=classic;html=1;rounded=0;entryX=0;entryY=0.5;entryDx=0;entryDy=0;dashed=1;exitX=0.983;exitY=0.66;exitDx=0;exitDy=0;exitPerimeter=0;" edge="1" parent="cb05J--shXvywzciJnqB-1" target="cb05J--shXvywzciJnqB-21" source="cb05J--shXvywzciJnqB-26">
          <mxGeometry relative="1" as="geometry">
            <mxPoint x="200" y="440" as="sourcePoint" />
            <mxPoint x="300" y="440" as="targetPoint" />
          </mxGeometry>
        </mxCell>
        <mxCell id="cb05J--shXvywzciJnqB-23" value="&amp;lt;&amp;lt;include&amp;gt;&amp;gt;" style="edgeLabel;resizable=0;html=1;align=center;verticalAlign=middle;" connectable="0" vertex="1" parent="cb05J--shXvywzciJnqB-22">
          <mxGeometry relative="1" as="geometry" />
        </mxCell>
        <mxCell id="cb05J--shXvywzciJnqB-24" value="" style="endArrow=classic;html=1;rounded=0;exitX=0;exitY=0.66;exitDx=0;exitDy=0;exitPerimeter=0;entryX=0.991;entryY=0.64;entryDx=0;entryDy=0;dashed=1;entryPerimeter=0;" edge="1" parent="cb05J--shXvywzciJnqB-1" source="cb05J--shXvywzciJnqB-20" target="cb05J--shXvywzciJnqB-26">
          <mxGeometry relative="1" as="geometry">
            <mxPoint x="175" y="370" as="sourcePoint" />
            <mxPoint x="210" y="425" as="targetPoint" />
          </mxGeometry>
        </mxCell>
        <mxCell id="cb05J--shXvywzciJnqB-25" value="&amp;lt;&amp;lt;extend&amp;gt;&amp;gt;" style="edgeLabel;resizable=0;html=1;align=center;verticalAlign=middle;" connectable="0" vertex="1" parent="cb05J--shXvywzciJnqB-24">
          <mxGeometry relative="1" as="geometry" />
        </mxCell>
        <mxCell id="cb05J--shXvywzciJnqB-26" value="Create Customer" style="ellipse;whiteSpace=wrap;html=1;" vertex="1" parent="cb05J--shXvywzciJnqB-1">
          <mxGeometry x="75" y="300" width="115" height="50" as="geometry" />
        </mxCell>
        <mxCell id="cb05J--shXvywzciJnqB-49" value="Delete Customer" style="ellipse;whiteSpace=wrap;html=1;" vertex="1" parent="cb05J--shXvywzciJnqB-1">
          <mxGeometry x="75" y="366" width="115" height="50" as="geometry" />
        </mxCell>
        <mxCell id="cb05J--shXvywzciJnqB-50" value="Update Customer" style="ellipse;whiteSpace=wrap;html=1;" vertex="1" parent="cb05J--shXvywzciJnqB-1">
          <mxGeometry x="75" y="431" width="115" height="50" as="geometry" />
        </mxCell>
        <mxCell id="cb05J--shXvywzciJnqB-51" value="Find Customer" style="ellipse;whiteSpace=wrap;html=1;" vertex="1" parent="cb05J--shXvywzciJnqB-1">
          <mxGeometry x="75" y="496" width="115" height="50" as="geometry" />
        </mxCell>
        <mxCell id="cb05J--shXvywzciJnqB-52" value="Find All Customers" style="ellipse;whiteSpace=wrap;html=1;" vertex="1" parent="cb05J--shXvywzciJnqB-1">
          <mxGeometry x="75" y="560" width="115" height="50" as="geometry" />
        </mxCell>
        <mxCell id="cb05J--shXvywzciJnqB-53" value="Print Selected Customers" style="ellipse;whiteSpace=wrap;html=1;" vertex="1" parent="cb05J--shXvywzciJnqB-1">
          <mxGeometry x="75" y="690" width="115" height="50" as="geometry" />
        </mxCell>
        <mxCell id="cb05J--shXvywzciJnqB-54" value="Print Selected Customer" style="ellipse;whiteSpace=wrap;html=1;" vertex="1" parent="cb05J--shXvywzciJnqB-1">
          <mxGeometry x="75" y="626" width="115" height="50" as="geometry" />
        </mxCell>
        <mxCell id="cb05J--shXvywzciJnqB-74" value="Generate QR" style="ellipse;whiteSpace=wrap;html=1;" vertex="1" parent="cb05J--shXvywzciJnqB-1">
          <mxGeometry x="75" y="1258" width="115" height="50" as="geometry" />
        </mxCell>
        <mxCell id="cb05J--shXvywzciJnqB-75" value="Place Order" style="ellipse;whiteSpace=wrap;html=1;" vertex="1" parent="cb05J--shXvywzciJnqB-1">
          <mxGeometry x="75" y="1360" width="115" height="50" as="geometry" />
        </mxCell>
        <mxCell id="cb05J--shXvywzciJnqB-76" value="View Order" style="ellipse;whiteSpace=wrap;html=1;" vertex="1" parent="cb05J--shXvywzciJnqB-1">
          <mxGeometry x="75" y="1422" width="115" height="50" as="geometry" />
        </mxCell>
        <mxCell id="cb05J--shXvywzciJnqB-77" value="Income Check" style="ellipse;whiteSpace=wrap;html=1;" vertex="1" parent="cb05J--shXvywzciJnqB-1">
          <mxGeometry x="75" y="1480" width="115" height="50" as="geometry" />
        </mxCell>
        <mxCell id="cb05J--shXvywzciJnqB-81" value="" style="endArrow=none;html=1;rounded=0;entryX=0;entryY=0.5;entryDx=0;entryDy=0;" edge="1" parent="cb05J--shXvywzciJnqB-1" target="cb05J--shXvywzciJnqB-62">
          <mxGeometry width="50" height="50" relative="1" as="geometry">
            <mxPoint x="-70" y="990" as="sourcePoint" />
            <mxPoint x="50" y="960" as="targetPoint" />
          </mxGeometry>
        </mxCell>
        <mxCell id="cb05J--shXvywzciJnqB-82" value="" style="endArrow=none;html=1;rounded=0;entryX=0;entryY=0.5;entryDx=0;entryDy=0;" edge="1" parent="cb05J--shXvywzciJnqB-1" target="cb05J--shXvywzciJnqB-63">
          <mxGeometry width="50" height="50" relative="1" as="geometry">
            <mxPoint x="-70" y="990" as="sourcePoint" />
            <mxPoint x="70" y="1000" as="targetPoint" />
          </mxGeometry>
        </mxCell>
        <mxCell id="cb05J--shXvywzciJnqB-2" value="Manager" style="shape=umlActor;verticalLabelPosition=bottom;verticalAlign=top;html=1;outlineConnect=0;" vertex="1" parent="1">
          <mxGeometry x="50" y="240" width="30" height="60" as="geometry" />
        </mxCell>
        <mxCell id="cb05J--shXvywzciJnqB-55" value="System" style="shape=umlActor;verticalLabelPosition=bottom;verticalAlign=top;html=1;outlineConnect=0;" vertex="1" parent="1">
          <mxGeometry x="790" y="240" width="30" height="60" as="geometry" />
        </mxCell>
        <mxCell id="cb05J--shXvywzciJnqB-56" value="" style="endArrow=none;html=1;rounded=0;entryX=0;entryY=0.5;entryDx=0;entryDy=0;" edge="1" parent="1" target="cb05J--shXvywzciJnqB-3">
          <mxGeometry width="50" height="50" relative="1" as="geometry">
            <mxPoint x="80" y="270" as="sourcePoint" />
            <mxPoint x="130" y="220" as="targetPoint" />
            <Array as="points">
              <mxPoint x="140" y="155" />
            </Array>
          </mxGeometry>
        </mxCell>
        <mxCell id="cb05J--shXvywzciJnqB-57" value="" style="endArrow=none;html=1;rounded=0;entryX=0;entryY=0.5;entryDx=0;entryDy=0;" edge="1" parent="1" target="cb05J--shXvywzciJnqB-7">
          <mxGeometry width="50" height="50" relative="1" as="geometry">
            <mxPoint x="80" y="270" as="sourcePoint" />
            <mxPoint x="190" y="190" as="targetPoint" />
          </mxGeometry>
        </mxCell>
        <mxCell id="cb05J--shXvywzciJnqB-58" value="" style="endArrow=none;html=1;rounded=0;exitX=0;exitY=0.5;exitDx=0;exitDy=0;" edge="1" parent="1" source="cb05J--shXvywzciJnqB-26">
          <mxGeometry width="50" height="50" relative="1" as="geometry">
            <mxPoint x="80" y="380" as="sourcePoint" />
            <mxPoint x="80" y="270" as="targetPoint" />
          </mxGeometry>
        </mxCell>
        <mxCell id="cb05J--shXvywzciJnqB-59" value="" style="endArrow=none;html=1;rounded=0;exitX=0;exitY=0.5;exitDx=0;exitDy=0;" edge="1" parent="1" source="cb05J--shXvywzciJnqB-49">
          <mxGeometry width="50" height="50" relative="1" as="geometry">
            <mxPoint x="80" y="420" as="sourcePoint" />
            <mxPoint x="80" y="270" as="targetPoint" />
          </mxGeometry>
        </mxCell>
        <mxCell id="cb05J--shXvywzciJnqB-60" value="Create Product" style="ellipse;whiteSpace=wrap;html=1;" vertex="1" parent="1">
          <mxGeometry x="225" y="864" width="115" height="50" as="geometry" />
        </mxCell>
        <mxCell id="cb05J--shXvywzciJnqB-61" value="Delete Product" style="ellipse;whiteSpace=wrap;html=1;" vertex="1" parent="1">
          <mxGeometry x="225" y="930" width="115" height="50" as="geometry" />
        </mxCell>
        <mxCell id="cb05J--shXvywzciJnqB-62" value="Update Product" style="ellipse;whiteSpace=wrap;html=1;" vertex="1" parent="1">
          <mxGeometry x="225" y="995" width="115" height="50" as="geometry" />
        </mxCell>
        <mxCell id="cb05J--shXvywzciJnqB-63" value="Find Product" style="ellipse;whiteSpace=wrap;html=1;" vertex="1" parent="1">
          <mxGeometry x="225" y="1060" width="115" height="50" as="geometry" />
        </mxCell>
        <mxCell id="cb05J--shXvywzciJnqB-64" value="Find All Product" style="ellipse;whiteSpace=wrap;html=1;" vertex="1" parent="1">
          <mxGeometry x="225" y="1124" width="115" height="50" as="geometry" />
        </mxCell>
        <mxCell id="cb05J--shXvywzciJnqB-65" value="Print Selected Product" style="ellipse;whiteSpace=wrap;html=1;" vertex="1" parent="1">
          <mxGeometry x="225" y="1254" width="115" height="50" as="geometry" />
        </mxCell>
        <mxCell id="cb05J--shXvywzciJnqB-66" value="Print Selected Product" style="ellipse;whiteSpace=wrap;html=1;" vertex="1" parent="1">
          <mxGeometry x="225" y="1190" width="115" height="50" as="geometry" />
        </mxCell>
        <mxCell id="cb05J--shXvywzciJnqB-67" value="" style="endArrow=none;html=1;rounded=0;exitX=0;exitY=0.5;exitDx=0;exitDy=0;" edge="1" parent="1" source="cb05J--shXvywzciJnqB-50">
          <mxGeometry width="50" height="50" relative="1" as="geometry">
            <mxPoint x="80" y="440" as="sourcePoint" />
            <mxPoint x="80" y="270" as="targetPoint" />
          </mxGeometry>
        </mxCell>
        <mxCell id="cb05J--shXvywzciJnqB-68" value="" style="endArrow=none;html=1;rounded=0;exitX=0;exitY=0.5;exitDx=0;exitDy=0;" edge="1" parent="1" source="cb05J--shXvywzciJnqB-51">
          <mxGeometry width="50" height="50" relative="1" as="geometry">
            <mxPoint x="60" y="440" as="sourcePoint" />
            <mxPoint x="80" y="270" as="targetPoint" />
          </mxGeometry>
        </mxCell>
        <mxCell id="cb05J--shXvywzciJnqB-69" value="" style="endArrow=none;html=1;rounded=0;exitX=0;exitY=0.5;exitDx=0;exitDy=0;" edge="1" parent="1" source="cb05J--shXvywzciJnqB-52">
          <mxGeometry width="50" height="50" relative="1" as="geometry">
            <mxPoint x="60" y="460" as="sourcePoint" />
            <mxPoint x="80" y="270" as="targetPoint" />
          </mxGeometry>
        </mxCell>
        <mxCell id="cb05J--shXvywzciJnqB-70" value="" style="endArrow=none;html=1;rounded=0;exitX=0;exitY=0.5;exitDx=0;exitDy=0;" edge="1" parent="1" source="cb05J--shXvywzciJnqB-54">
          <mxGeometry width="50" height="50" relative="1" as="geometry">
            <mxPoint x="50" y="420" as="sourcePoint" />
            <mxPoint x="80" y="270" as="targetPoint" />
          </mxGeometry>
        </mxCell>
        <mxCell id="cb05J--shXvywzciJnqB-78" value="Manager" style="shape=umlActor;verticalLabelPosition=bottom;verticalAlign=top;html=1;outlineConnect=0;" vertex="1" parent="1">
          <mxGeometry x="50" y="1020" width="30" height="60" as="geometry" />
        </mxCell>
        <mxCell id="cb05J--shXvywzciJnqB-79" value="" style="endArrow=none;html=1;rounded=0;entryX=0;entryY=0.5;entryDx=0;entryDy=0;" edge="1" parent="1" target="cb05J--shXvywzciJnqB-60">
          <mxGeometry width="50" height="50" relative="1" as="geometry">
            <mxPoint x="80" y="1050" as="sourcePoint" />
            <mxPoint x="130" y="1000" as="targetPoint" />
          </mxGeometry>
        </mxCell>
        <mxCell id="cb05J--shXvywzciJnqB-80" value="" style="endArrow=none;html=1;rounded=0;entryX=0;entryY=0.5;entryDx=0;entryDy=0;" edge="1" parent="1" target="cb05J--shXvywzciJnqB-61">
          <mxGeometry width="50" height="50" relative="1" as="geometry">
            <mxPoint x="80" y="1050" as="sourcePoint" />
            <mxPoint x="180" y="1000" as="targetPoint" />
          </mxGeometry>
        </mxCell>
        <mxCell id="cb05J--shXvywzciJnqB-83" value="" style="endArrow=none;html=1;rounded=0;exitX=0.043;exitY=0.32;exitDx=0;exitDy=0;exitPerimeter=0;" edge="1" parent="1" source="cb05J--shXvywzciJnqB-64">
          <mxGeometry width="50" height="50" relative="1" as="geometry">
            <mxPoint x="110" y="1150" as="sourcePoint" />
            <mxPoint x="80" y="1050" as="targetPoint" />
          </mxGeometry>
        </mxCell>
        <mxCell id="cb05J--shXvywzciJnqB-84" value="" style="endArrow=none;html=1;rounded=0;exitX=0;exitY=0.5;exitDx=0;exitDy=0;" edge="1" parent="1" source="cb05J--shXvywzciJnqB-66">
          <mxGeometry width="50" height="50" relative="1" as="geometry">
            <mxPoint x="70" y="1180" as="sourcePoint" />
            <mxPoint x="80" y="1050" as="targetPoint" />
          </mxGeometry>
        </mxCell>
        <mxCell id="cb05J--shXvywzciJnqB-85" value="" style="endArrow=none;html=1;rounded=0;exitX=0;exitY=0.5;exitDx=0;exitDy=0;" edge="1" parent="1" source="cb05J--shXvywzciJnqB-65">
          <mxGeometry width="50" height="50" relative="1" as="geometry">
            <mxPoint x="60" y="1200" as="sourcePoint" />
            <mxPoint x="80" y="1050" as="targetPoint" />
          </mxGeometry>
        </mxCell>
        <mxCell id="cb05J--shXvywzciJnqB-86" value="" style="endArrow=none;html=1;rounded=0;exitX=0;exitY=0.5;exitDx=0;exitDy=0;" edge="1" parent="1" source="cb05J--shXvywzciJnqB-74">
          <mxGeometry width="50" height="50" relative="1" as="geometry">
            <mxPoint x="60" y="1200" as="sourcePoint" />
            <mxPoint x="80" y="1050" as="targetPoint" />
          </mxGeometry>
        </mxCell>
        <mxCell id="cb05J--shXvywzciJnqB-87" value="" style="endArrow=none;html=1;rounded=0;exitX=0;exitY=0.5;exitDx=0;exitDy=0;" edge="1" parent="1" source="cb05J--shXvywzciJnqB-75">
          <mxGeometry width="50" height="50" relative="1" as="geometry">
            <mxPoint x="130" y="1430" as="sourcePoint" />
            <mxPoint x="80" y="1050" as="targetPoint" />
          </mxGeometry>
        </mxCell>
        <mxCell id="cb05J--shXvywzciJnqB-88" value="" style="endArrow=none;html=1;rounded=0;exitX=0;exitY=0.34;exitDx=0;exitDy=0;exitPerimeter=0;" edge="1" parent="1" source="cb05J--shXvywzciJnqB-76">
          <mxGeometry width="50" height="50" relative="1" as="geometry">
            <mxPoint x="50" y="1180" as="sourcePoint" />
            <mxPoint x="80" y="1050" as="targetPoint" />
          </mxGeometry>
        </mxCell>
        <mxCell id="cb05J--shXvywzciJnqB-89" value="" style="endArrow=none;html=1;rounded=0;exitX=0;exitY=0.5;exitDx=0;exitDy=0;" edge="1" parent="1" source="cb05J--shXvywzciJnqB-77">
          <mxGeometry width="50" height="50" relative="1" as="geometry">
            <mxPoint x="20" y="1200" as="sourcePoint" />
            <mxPoint x="80" y="1050" as="targetPoint" />
          </mxGeometry>
        </mxCell>
      </root>
    </mxGraphModel>
  </diagram>
</mxfile>
